<?xml version="1.0" encoding="UTF-8"?> <svg xmlns="http://www.w3.org/2000/svg" width="608" height="100" viewBox="0 0 608 100" fill="none"><path d="M444.7 0L397.679 29.9392L367.91 4.96966C364.022 1.69696 359.162 0 354.181 0H187.965C179.095 0 171.926 7.15146 171.926 15.9999V83.7569C171.926 92.6053 179.095 99.7568 187.965 99.7568H331.217L382.126 66.9086L416.269 94.9084C420.157 98.0599 424.895 99.7568 429.877 99.7568H486.497L420.886 45.5754C418.091 43.2724 418.334 38.9088 421.372 36.9694L468.15 6.90904V18.3029H505.33C510.312 18.3029 514.321 22.3029 514.321 27.2725L514.2 27.3937V99.878H555.511V25.5756C555.511 21.5756 558.791 18.4241 562.801 18.4241H608V0H444.7ZM358.433 60.1207L307.888 92.7266V81.3327H219.556C216.639 81.3327 214.209 78.9085 214.209 75.9994V58.0602H282.129V39.5148H214.209V23.7574C214.209 20.8483 216.639 18.4241 219.556 18.4241H305.944V7.15146L358.919 51.5147C361.714 53.8178 361.471 58.1814 358.433 60.1207Z" fill="black"></path><path d="M43.741 20.6059V20.7271C28.1887 7.87873 18.7114 0 3.40208 0H0V99.878H42.283V33.8179L112.147 94.5447C116.035 97.9386 121.017 99.7568 126.241 99.7568H131.466L109.11 79.6357L43.741 20.6059Z" fill="black"></path><path d="M118.587 66.0609L48.7227 5.33406C44.8346 1.94015 39.853 0.12198 34.6284 0.12198H29.5253L51.7603 20.243L117.129 79.2729C117.129 79.2729 139.607 100 160.87 100V0.12198H118.587V66.0609Z" fill="black"></path></svg> 